<?xml version="1.0" encoding="UTF-8"?><svg id="Layer_2" xmlns="http://www.w3.org/2000/svg" width="411.96" height="411.96" viewBox="0 0 411.96 411.96"><g id="Layer_1-2"><rect x="60.33" y="60.33" width="291.3" height="291.3" transform="translate(205.98 -85.32) rotate(45)" style="stroke-width:0px;"/><path d="m272.96,246.98v33s-48,9-49-26c0,0-5.5,30.5-39.5,29.5s-46-15-46-45,19-46,81-45c0,0,5-36-22-33s-30,18-30,18l-24-24s17-29,58-27c19.32.94,35.81,7.39,41.25,12.55,4.86,4.61,8.75,10.45,8.75,10.45s1.62,2.44,3,5c6.7,12.47,6,42,6,42-1.02,24.74-.72,50.52-.87,50.52,0,0-.13-.52-.13-.52l13.5-.5Zm-78.87-29.5c-12.37,0-14.63,9-15.63,20s6,16,20,17,22-16.16,22-16.16v-20.84h-26.37Z" style="fill:#fff; stroke-width:0px;"/></g></svg>