<?xml version="1.0" encoding="UTF-8"?><svg id="Layer_1" xmlns="http://www.w3.org/2000/svg" width="999.93" height="893.67" viewBox="0 0 999.93 893.67"><path d="m33.3,503.22C72.1,431.87,514.3,10.91,514.3,10.91l-.5,493-480.5-.69Z" style="fill:none; stroke:#000; stroke-miterlimit:10; stroke-width:3px;"/><line x1="514.3" y1="531.82" x2="516.6" y2=".02" style="fill:none; stroke:#000; stroke-miterlimit:10; stroke-width:7px;"/><path d="m506.75,735.12l164.1-40.7-154-166.7-10.1,206.2-16.8,7.4-135.6-41.1s139.7-168,158.4-172.5" style="fill:none; stroke:#000; stroke-miterlimit:10; stroke-width:3px;"/><polygon points="516.05 528.12 512.65 527.62 506.75 733.82 516.05 528.12" style="fill:#f5f5f5; stroke:#000; stroke-miterlimit:10; stroke-width:3px;"/><path d="m389.95,657.82s-257.7-47.1-286.1-50.8c-28.4-3.8-93-6.3-93-6.3,0,0,324.2,104.5,338.4,100.8s40.7-43.7,40.7-43.7Z" style="fill:none; stroke:#000; stroke-miterlimit:10; stroke-width:3px;"/><path d="m10.95,600.72s131.4,264.2,174,282.9l303.7-141L10.95,600.72Z" style="fill:none; stroke:#000; stroke-miterlimit:10; stroke-width:3px;"/><line x1="186.25" y1="882.22" x2="768.75" y2="891.62" style="fill:none; stroke:#000; stroke-miterlimit:10;"/><polygon points="505.45 736.42 187.35 883.62 508.05 888.32 505.45 736.42" style="fill:none; stroke:#000; stroke-miterlimit:10; stroke-width:3px;"/><polygon points="506.75 735.12 772.45 891.62 509.35 886.92 506.75 735.12" style="fill:none; stroke:#000; stroke-miterlimit:10; stroke-width:3px;"/><path d="m770.85,891.72s232.7-289.1,227.5-292.9-217.3,60.8-235.4,69.5-254.8,65.8-254.8,65.8l262.7,157.6Z" style="fill:none; stroke:#000; stroke-miterlimit:10; stroke-width:3px;"/><path d="m997.85,598.72s1.2-5.6-6.5-5.6-138.2,12.2-155,14.7-198.3,51-198.3,51l32.9,35.6s81.2-20.5,89.7-23.8c8.4-3.4,237.2-71.9,237.2-71.9Z" style="fill:none; stroke:#000; stroke-miterlimit:10; stroke-width:3px;"/></svg>