<?xml version="1.0" encoding="UTF-8"?>
<svg id="Lag_2" data-name="Lag 2" xmlns="http://www.w3.org/2000/svg" viewBox="0 0 300.09 300.04">
  <defs>
    <style>
      .cls-1 {
        fill: #000;
        stroke-width: 0px;
      }
    </style>
  </defs>
  <g id="Lag_1-2" data-name="Lag 1">
    <path class="cls-1" d="M150.09,1.04c39.8,0,77.22,15.5,105.36,43.64,28.14,28.14,43.64,65.56,43.64,105.36s-15.5,77.22-43.64,105.36c-28.14,28.14-65.56,43.64-105.36,43.64s-77.22-15.5-105.36-43.64S1.09,189.84,1.09,150.04s15.5-77.22,43.64-105.36C72.87,16.54,110.29,1.04,150.09,1.04M150.09.04C67.25.04.09,67.2.09,150.04s67.16,150,150,150,150-67.16,150-150S232.93.04,150.09.04h0Z"/>
    <path class="cls-1" d="M150.09,26.04c33.12,0,64.26,12.9,87.68,36.32,23.42,23.42,36.32,54.56,36.32,87.68s-12.9,64.26-36.32,87.68c-23.42,23.42-54.56,36.32-87.68,36.32s-64.26-12.9-87.68-36.32-36.32-54.56-36.32-87.68,12.9-64.26,36.32-87.68,54.56-36.32,87.68-36.32M150.09,25.04c-69.04,0-125,55.96-125,125s55.96,125,125,125,125-55.96,125-125S219.12,25.04,150.09,25.04h0Z"/>
    <path class="cls-1" d="M150.09.04v25c9.3.78,68.61,6.72,102.5,55.5,19.14,27.55,21.66,56.53,22,61,.71,9.51,1.1,29.83-8,53-15.1,38.45-45.37,56.91-54,62-9.29,5.48-31.76,18.35-63,18-43.32-.48-72.26-26.04-81-34,0,0-38.18-34.59-43-86-1.2-12.79.5-22.5.5-22.5,1.63-9.32,5.05-18.16,7.5-24.5,4.22-10.93,6.25-13.1,5.09-16.62-2.34-7.11-12.58-10.18-20.87-11.65C11,92.21-3.04,123.21.59,163.54c.62,6.9,7.48,71.09,64,110,36.12,24.86,72.82,25.84,85,26,12.46.16,43.66.18,76.43-18.6,48.6-27.85,63.84-75.95,67.57-88.4,6.24-20.8,6.5-37.69,6.5-42.5.04-45.85-22.27-100.22-70.5-129.5C198.52,1.68,167.28-.34,150.09.04Z"/>
  </g>
</svg>