<?xml version="1.0" encoding="UTF-8"?>
<svg id="Lag_2" data-name="Lag 2" xmlns="http://www.w3.org/2000/svg" viewBox="0 0 300 300.04">
  <defs>
    <style>
      .cls-1 {
        fill: #000;
        stroke-width: 0px;
      }
    </style>
  </defs>
  <g id="Lag_1-2" data-name="Lag 1">
    <path class="cls-1" d="M150,1.04c39.8,0,77.22,15.5,105.36,43.64,28.14,28.14,43.64,65.56,43.64,105.36s-15.5,77.22-43.64,105.36c-28.14,28.14-65.56,43.64-105.36,43.64s-77.22-15.5-105.36-43.64C16.5,227.26,1,189.84,1,150.04s15.5-77.22,43.64-105.36C72.78,16.54,110.2,1.04,150,1.04M150,.04C67.16.04,0,67.2,0,150.04s67.16,150,150,150,150-67.16,150-150S232.84.04,150,.04h0Z"/>
    <path class="cls-1" d="M150,26.04c33.12,0,64.26,12.9,87.68,36.32,23.42,23.42,36.32,54.56,36.32,87.68s-12.9,64.26-36.32,87.68c-23.42,23.42-54.56,36.32-87.68,36.32s-64.26-12.9-87.68-36.32c-23.42-23.42-36.32-54.56-36.32-87.68s12.9-64.26,36.32-87.68c23.42-23.42,54.56-36.32,87.68-36.32M150,25.04c-69.04,0-125,55.96-125,125s55.96,125,125,125,125-55.96,125-125S219.04,25.04,150,25.04h0Z"/>
    <path class="cls-1" d="M150,.04v25c9.3.78,68.61,6.72,102.5,55.5,19.14,27.55,21.66,56.53,22,61,.71,9.51,1.1,29.83-8,53-15.1,38.45-45.37,56.91-54,62-9.61,5.67-32.85,19.37-63,18-41.43-1.88-81.92-31.57-81.93-31.58h0s-13-13-13-13h0l13,13h0l-13-13h0s-6.21,6.21-18,18h0c.06.05,11.42,11.95,23,21,2.19,1.71,9.52,7.33,20,13,16.23,8.78,30.43,12.5,37,14,3.02.69,16.12,3.57,32.93,3.58,11.91,0,43.75.13,76.43-18.6,48.6-27.85,63.84-75.95,67.57-88.4,6.24-20.8,6.5-37.69,6.5-42.5.04-45.85-22.27-100.22-70.5-129.5C198.43,1.68,167.19-.34,150,.04Z"/>
  </g>
</svg>