<?xml version="1.0" encoding="UTF-8"?>
<svg id="Lag_2" data-name="Lag 2" xmlns="http://www.w3.org/2000/svg" viewBox="0 0 301.07 300.05">
  <defs>
    <style>
      .cls-1 {
        fill: #000;
        stroke-width: 0px;
      }
    </style>
  </defs>
  <g id="Lag_1-2" data-name="Lag 1">
    <path class="cls-1" d="M150,1.05c39.8,0,77.22,15.5,105.36,43.64,28.14,28.14,43.64,65.56,43.64,105.36s-15.5,77.22-43.64,105.36c-28.14,28.14-65.56,43.64-105.36,43.64s-77.22-15.5-105.36-43.64C16.5,227.26,1,189.84,1,150.05s15.5-77.22,43.64-105.36C72.78,16.54,110.2,1.05,150,1.05M150,.05C67.16.05,0,67.2,0,150.05s67.16,150,150,150,150-67.16,150-150S232.84.05,150,.05h0Z"/>
    <path class="cls-1" d="M150,26.05c33.12,0,64.26,12.9,87.68,36.32,23.42,23.42,36.32,54.56,36.32,87.68s-12.9,64.26-36.32,87.68-54.56,36.32-87.68,36.32-64.26-12.9-87.68-36.32c-23.42-23.42-36.32-54.56-36.32-87.68s12.9-64.26,36.32-87.68,54.56-36.32,87.68-36.32M150,25.05c-69.04,0-125,55.96-125,125s55.96,125,125,125,125-55.96,125-125S219.04,25.05,150,25.05h0Z"/>
    <path class="cls-1" d="M150,.05v25c9.3.78,68.61,6.72,102.5,55.5,11.61,16.71,21.74,61.09,22,61,0,0,.07-.08.19-.25h0c8.33,3,16.67,6,25,9h0s.3-.25.31-.25c.25-.21,7.48-35.85-19.31-78.75-19.86-31.81-45.96-47.66-51.19-50.75C196.1.82,163.96-.3,150,.05Z"/>
  </g>
</svg>